<svg width="24" height="24" viewBox="0 0 24 24" fill="none" xmlns="http://www.w3.org/2000/svg">
<path d="M17.0006 10.5C17.0006 11.3284 16.329 12 15.5006 12L11.9996 12L8.50036 12C7.6718 12 6.99997 12.6714 6.99943 13.5" stroke="black"/>
<path d="M12 14L12 10" stroke="white" stroke-width="2"/>
<path d="M9 17C9 18.1046 8.10457 19 7 19C5.89543 19 5 18.1046 5 17C5 15.8954 5.89543 15 7 15C8.10457 15 9 15.8954 9 17Z" stroke="black"/>
<path d="M19 7C19 8.10457 18.1046 9 17 9C15.8954 9 15 8.10457 15 7C15 5.89543 15.8954 5 17 5C18.1046 5 19 5.89543 19 7Z" stroke="black"/>
</svg>
